<svg width="94" height="20" viewBox="0 0 94 20" fill="none" xmlns="http://www.w3.org/2000/svg">
<rect width="93.2077" height="20" fill="none"/>
<path fill-rule="evenodd" clip-rule="evenodd" d="M10.4935 0H19.9968V20H10.4935V0ZM29.3251 14.9945C28.766 14.5399 28.3445 13.932 28.0619 13.1717L25.6912 14.2895C26.1233 15.5424 26.8386 16.5077 27.838 17.1862C28.8365 17.8647 29.9927 18.2038 31.3043 18.2038C32.0202 18.2038 32.6982 18.0954 33.3396 17.8794C33.981 17.6635 34.5397 17.3504 35.0174 16.9402C35.4938 16.53 35.8744 16.0305 36.1578 15.4417C36.4409 14.8526 36.5824 14.1859 36.5824 13.44C36.5824 12.3966 36.2806 11.5204 35.6767 10.8124C35.0731 10.1043 34.1596 9.51177 32.9373 9.03447L31.0139 8.29591C30.3728 8.0429 29.8878 7.76333 29.5598 7.45723C29.2324 7.15196 29.0682 6.76057 29.0682 6.28328C29.0682 5.74683 29.2694 5.31437 29.6718 4.98601C30.0746 4.65858 30.5888 4.49398 31.215 4.49398C31.886 4.49398 32.4451 4.69913 32.8924 5.10933C33.3396 5.51952 33.6823 6.02284 33.9213 6.61896L36.2245 5.45588C35.792 4.36773 35.1289 3.52121 34.2344 2.91767C33.3396 2.31371 32.3259 2.00447 31.1924 1.98921C30.5065 1.98921 29.8695 2.09372 29.2807 2.30274C28.6912 2.51134 28.1773 2.80961 27.7375 3.19723C27.2976 3.58475 26.9545 4.05462 26.7089 4.6059C26.4625 5.15761 26.3397 5.76899 26.3397 6.44004C26.3397 7.51346 26.6601 8.40042 27.3016 9.10105C27.9426 9.8022 28.8444 10.3613 30.0075 10.7784L31.8634 11.4495C33.1754 11.9268 33.8317 12.6501 33.8317 13.619C33.8317 14.2895 33.586 14.8008 33.094 15.1509C32.6019 15.5014 32.0202 15.6764 31.3496 15.6764C30.5587 15.6764 29.8847 15.4491 29.3251 14.9945ZM41.1369 6.97915V3.73634H38.565V6.97915H36.9321V9.17081H38.565V14.5609C38.565 15.7091 38.8743 16.6036 39.4931 17.2446C40.1118 17.8855 40.9723 18.206 42.0757 18.206C42.5233 18.206 42.9109 18.169 43.2388 18.0945C43.5667 18.0197 43.8349 17.9234 44.0439 17.8037V15.5001C43.8802 15.6194 43.6895 15.7052 43.4739 15.7571C43.2575 15.8097 43.045 15.8355 42.8364 15.8355C42.2547 15.8355 41.8262 15.6978 41.5505 15.4217C41.274 15.1461 41.1369 14.7028 41.1369 14.091V9.17081H44.0439V6.97915H41.1369ZM50.4413 9.08544C49.9789 9.08544 49.5504 9.17479 49.1555 9.35371C48.7605 9.53263 48.4177 9.77134 48.1269 10.0696C47.836 10.3679 47.6043 10.7258 47.4337 11.143C47.2616 11.5606 47.1763 12.0004 47.1763 12.4624C47.1763 12.9397 47.2616 13.3834 47.4337 13.7932C47.6043 14.2034 47.836 14.5574 48.1269 14.8553C48.4177 15.154 48.7605 15.3921 49.1555 15.5712C49.5504 15.7501 49.9789 15.8393 50.4413 15.8393C50.9038 15.8393 51.3323 15.7501 51.7272 15.5712C52.1222 15.3921 52.4654 15.154 52.7562 14.8553C53.0471 14.5574 53.2779 14.2034 53.4494 13.7932C53.621 13.3834 53.7068 12.9397 53.7068 12.4624C53.7068 12.0004 53.621 11.5606 53.4494 11.143C53.2779 10.7258 53.0471 10.3679 52.7562 10.0696C52.4654 9.77134 52.1222 9.53263 51.7272 9.35371C51.3323 9.17479 50.9038 9.08544 50.4413 9.08544ZM50.4413 6.71486C51.2766 6.71486 52.0516 6.86379 52.7675 7.16206C53.483 7.46085 54.1018 7.86666 54.6235 8.38094C55.1455 8.89513 55.5514 9.50306 55.8423 10.2037C56.1331 10.9048 56.2786 11.6573 56.2786 12.4624C56.2786 13.2676 56.1331 14.0205 55.8423 14.7211C55.5514 15.4222 55.1455 16.0297 54.6235 16.5439C54.1018 17.0587 53.483 17.465 52.7675 17.7628C52.0516 18.0611 51.2766 18.2104 50.4413 18.2104C49.6061 18.2104 48.8315 18.0611 48.1156 17.7627C47.4001 17.4649 46.7813 17.0587 46.2592 16.5439C45.7371 16.0297 45.3313 15.4222 45.0408 14.7211C44.7499 14.0205 44.6045 13.2676 44.6045 12.4624C44.6045 11.6573 44.75 10.9048 45.0408 10.2037C45.3313 9.50306 45.7371 8.89523 46.2592 8.38094C46.7813 7.86666 47.4001 7.46085 48.1156 7.16206C48.8315 6.86379 49.6061 6.71486 50.4413 6.71486ZM63.5231 9.37325C63.8509 9.37325 64.0743 9.40325 64.1937 9.46292V6.82365C64.1488 6.77923 63.9851 6.75697 63.7016 6.75697C62.9866 6.75697 62.3299 6.94686 61.7337 7.32696C61.1372 7.70717 60.7047 8.21843 60.4366 8.85897V6.98041H57.887V17.939H60.4591V13.1085C60.4591 11.9755 60.7309 11.0697 61.2753 10.3909C61.8195 9.71291 62.569 9.37325 63.5231 9.37325ZM65.4513 6.97648H68.0457V17.9355H65.4513V6.97648ZM68.3366 3.7785C68.3366 4.21086 68.1837 4.58364 67.8785 4.89633C67.5719 5.20986 67.1882 5.36662 66.7263 5.36662C66.2938 5.36662 65.9211 5.20986 65.608 4.89633C65.2949 4.58364 65.1385 4.21086 65.1385 3.7785C65.1385 3.33078 65.2949 2.9511 65.608 2.63758C65.921 2.32447 66.2938 2.16812 66.7263 2.16812C67.1882 2.16812 67.5719 2.32885 67.8785 2.64886C68.1837 2.96981 68.3366 3.34604 68.3366 3.7785ZM77.7948 10.36C77.9585 10.6736 78.063 11.0089 78.1079 11.3669H72.2484C72.2928 11.0538 72.3973 10.7441 72.5615 10.4384C72.7256 10.1332 72.9377 9.86497 73.199 9.63369C73.4594 9.40252 73.7581 9.21262 74.0935 9.06286C74.4287 8.91435 74.7901 8.83942 75.1782 8.83942C75.5657 8.83942 75.9311 8.90307 76.2742 9.02974C76.6168 9.15651 76.9152 9.33155 77.1685 9.55489C77.4221 9.77875 77.6306 10.047 77.7948 10.36ZM78.3539 17.4388C79.1887 16.9246 79.8375 16.2348 80.2995 15.37L78.175 14.3637C77.8623 14.8409 77.4965 15.2358 77.0793 15.5489C76.6618 15.862 76.0952 16.0188 75.3793 16.0188C74.977 16.0188 74.5889 15.9482 74.2163 15.8059C73.8435 15.6648 73.5151 15.4705 73.2325 15.2245C72.9486 14.9785 72.7182 14.6876 72.5393 14.3523C72.3603 14.017 72.2558 13.6478 72.2262 13.2454H80.6571C80.6723 12.9323 80.6796 12.6715 80.6796 12.4629C80.6796 11.6429 80.5456 10.8826 80.2769 10.1815C80.0087 9.48048 79.6319 8.87297 79.1482 8.35868C78.6631 7.84439 78.0892 7.44161 77.426 7.15118C76.7623 6.86033 76.0281 6.71486 75.2226 6.71486C74.4326 6.71486 73.6984 6.86033 73.0201 7.15118C72.3412 7.44161 71.7525 7.84439 71.2534 8.35868C70.753 8.87297 70.362 9.48048 70.079 10.1815C69.7955 10.8826 69.6539 11.6429 69.6539 12.4629C69.6539 13.3124 69.7955 14.088 70.079 14.7882C70.362 15.4898 70.753 16.0933 71.2534 16.6002C71.7525 17.107 72.3524 17.5024 73.0536 17.7854C73.7542 18.0685 74.5219 18.2104 75.3571 18.2104C76.5202 18.2104 77.5187 17.9531 78.3539 17.4388ZM84.1723 12.4601C84.1723 12.9373 84.2581 13.3806 84.4297 13.7908C84.6008 14.201 84.8325 14.5585 85.1233 14.8642C85.4139 15.1699 85.76 15.412 86.1628 15.591C86.5656 15.7699 86.9976 15.8597 87.46 15.8597C87.9221 15.8597 88.3544 15.7699 88.7572 15.591C89.1596 15.412 89.5066 15.1699 89.7971 14.8642C90.088 14.5585 90.3188 14.201 90.4908 13.7908C90.6615 13.3806 90.7477 12.9373 90.7477 12.4601C90.7477 11.9828 90.6615 11.5395 90.4908 11.1293C90.3188 10.7195 90.088 10.3615 89.7971 10.0559C89.5066 9.75017 89.1596 9.50812 88.7572 9.3291C88.3544 9.14976 87.9221 9.06041 87.46 9.06041C86.9976 9.06041 86.5656 9.14976 86.1628 9.3291C85.76 9.50812 85.4139 9.75017 85.1233 10.0559C84.8325 10.3615 84.6008 10.7195 84.4297 11.1293C84.2581 11.5395 84.1723 11.9828 84.1723 12.4601ZM90.6357 17.9394V16.3734C90.2334 16.9409 89.704 17.3877 89.0476 17.7155C88.3914 18.0435 87.6834 18.2076 86.9231 18.2076C86.1628 18.2076 85.4583 18.0622 84.8098 17.7712C84.1614 17.4808 83.5984 17.078 83.1216 16.5637C82.6438 16.0495 82.2676 15.442 81.992 14.741C81.7159 14.0403 81.5784 13.28 81.5784 12.4601C81.5784 11.6548 81.7159 10.902 81.992 10.2013C82.2676 9.5007 82.6438 8.89278 83.1216 8.37807C83.5984 7.86378 84.1614 7.45797 84.8098 7.1597C85.4583 6.86143 86.1628 6.71209 86.9231 6.71209C87.6834 6.71209 88.3914 6.8653 89.0476 7.17099C89.704 7.47668 90.2334 7.91258 90.6357 8.47913V2.28394H93.2076V17.9394H90.6357ZM4.40979 2.09442V17.9145H9.25116V2.09442H4.40979ZM0 4.26262H3.16922V15.7351H0V4.26262Z" fill="#FC4040"/>
</svg>
